<svg xmlns="http://www.w3.org/2000/svg" viewBox="0 0 96 96" fill="none">
  <rect width="96" height="96" rx="24" fill="#F8D8D2"/>
  <path d="M23 38c0-19 10-29 26-29 15 0 25 10 25 29v46H23V38Z" fill="#664631"/>
  <path d="M14 96V85c0-15 15-25 34-25s34 10 34 25v11H14Z" fill="#E87563"/>
  <path d="M40 59h16v14c-5 4-11 4-16 0V59Z" fill="#E2AA8E"/>
  <path d="M29 35c0-12 8-19 19-19s20 7 20 19v18c0 15-9 25-20 25S29 68 29 53V35Z" fill="#F5C8AA"/>
  <path d="M27 36c12 1 25-5 31-15 0 8 5 14 12 18" stroke="#664631" stroke-width="10" stroke-linecap="round"/>
  <path d="M38 49h1m18 0h1" stroke="#172923" stroke-width="4" stroke-linecap="round"/>
  <path d="M43 62c3 3 7 3 10 0" stroke="#B56557" stroke-width="2.5" stroke-linecap="round"/>
  <path d="M27 57v8m43-8v8" stroke="#F4CC57" stroke-width="4" stroke-linecap="round"/>
  <path d="m30 77 18 10 18-10" stroke="#FFF5F1" stroke-width="3" stroke-linecap="round"/>
</svg>
